<?xml version="1.0" standalone="no"?>
<!DOCTYPE svg PUBLIC "-//W3C//DTD SVG 20010904//EN"
 "http://www.w3.org/TR/2001/REC-SVG-20010904/DTD/svg10.dtd">
<svg version="1.0" xmlns="http://www.w3.org/2000/svg"
 width="247.000000pt" height="247.000000pt" viewBox="0 0 247.000000 247.000000"
 preserveAspectRatio="xMidYMid meet">
<metadata>
Created by potrace 1.11, written by Peter Selinger 2001-2013
</metadata>
<g transform="translate(0.000000,247.000000) scale(0.100000,-0.100000)"
fill="#000000" stroke="none">
<path d="M1130 1798 c-45 -78 -91 -157 -101 -173 l-18 -31 55 -97 c30 -53 58
-97 62 -97 4 0 23 28 42 62 19 34 40 63 45 64 9 3 106 -160 296 -495 36 -64
120 -211 187 -327 67 -116 124 -219 128 -228 6 -15 -42 -16 -610 -16 -339 0
-616 4 -616 8 0 5 64 118 141 252 137 236 141 244 127 269 -80 140 -101 172
-108 164 -13 -13 -510 -875 -510 -885 0 -4 435 -8 966 -8 871 0 966 2 960 16
-3 8 -39 72 -80 142 -110 190 -588 1023 -776 1352 -46 80 -88 151 -95 158 -10
11 -28 -14 -95 -130z"/>
</g>
</svg>
