<?xml version="1.0" encoding="utf-8"?>
<!-- Generator: Adobe Illustrator 16.0.4, SVG Export Plug-In . SVG Version: 6.00 Build 0)  -->
<!DOCTYPE svg PUBLIC "-//W3C//DTD SVG 1.1//EN" "http://www.w3.org/Graphics/SVG/1.1/DTD/svg11.dtd">
<svg version="1.1" id="Layer_1" xmlns="http://www.w3.org/2000/svg" xmlns:xlink="http://www.w3.org/1999/xlink" x="0px" y="0px"
	 width="242.479px" height="73.186px" viewBox="0 0 242.479 73.186" enable-background="new 0 0 242.479 73.186"
	 xml:space="preserve">
<g>
	<g>
		<path fill="#323232" d="M120.653,42.901h-6.032c-0.677,0-1.232-0.169-1.667-0.507s-0.75-0.759-0.942-1.262l-3.132-8.555H91.508
			l-3.132,8.555c-0.155,0.445-0.459,0.851-0.914,1.218s-1.01,0.551-1.667,0.551h-6.061L96.206,0.967h7.975L120.653,42.901z
			 M93.509,27.067h13.369l-5.104-13.949c-0.232-0.618-0.488-1.348-0.769-2.189c-0.28-0.841-0.556-1.754-0.826-2.74
			c-0.271,0.986-0.537,1.904-0.798,2.755c-0.261,0.851-0.517,1.595-0.768,2.233L93.509,27.067z"/>
		<path fill="#323232" d="M152.321,33.012c0.425,0,0.792,0.165,1.102,0.493l3.074,3.335c-1.701,2.107-3.794,3.722-6.278,4.843
			c-2.484,1.121-5.466,1.682-8.946,1.682c-3.113,0-5.912-0.531-8.396-1.595c-2.485-1.063-4.607-2.542-6.366-4.437
			c-1.759-1.895-3.108-4.157-4.045-6.786c-0.938-2.629-1.407-5.5-1.407-8.613c0-3.151,0.522-6.037,1.566-8.657
			c1.044-2.62,2.513-4.876,4.408-6.771c1.895-1.895,4.162-3.369,6.8-4.422c2.639-1.054,5.554-1.581,8.744-1.581
			c3.113,0,5.833,0.498,8.164,1.494c2.33,0.996,4.326,2.315,5.988,3.958l-2.61,3.625c-0.155,0.232-0.353,0.435-0.594,0.609
			c-0.242,0.174-0.576,0.261-1,0.261c-0.445,0-0.899-0.174-1.363-0.522c-0.464-0.348-1.054-0.725-1.769-1.131
			s-1.619-0.783-2.711-1.131c-1.092-0.348-2.479-0.522-4.162-0.522c-1.972,0-3.784,0.343-5.438,1.029
			c-1.653,0.687-3.074,1.667-4.263,2.943c-1.189,1.276-2.117,2.828-2.784,4.655c-0.667,1.827-1,3.881-1,6.163
			c0,2.359,0.333,4.456,1,6.293s1.571,3.383,2.711,4.64c1.141,1.257,2.484,2.219,4.031,2.886c1.546,0.667,3.209,1,4.988,1
			c1.063,0,2.025-0.058,2.886-0.174c0.86-0.116,1.653-0.3,2.378-0.551c0.725-0.251,1.411-0.575,2.059-0.972
			c0.647-0.396,1.291-0.884,1.928-1.464c0.193-0.174,0.396-0.314,0.609-0.42C151.837,33.066,152.069,33.012,152.321,33.012z"/>
		<path fill="#323232" d="M199.619,21.935c0,3.074-0.513,5.897-1.537,8.468c-1.025,2.571-2.465,4.785-4.321,6.641
			s-4.089,3.296-6.698,4.321c-2.61,1.025-5.501,1.537-8.672,1.537h-16.008V0.967h16.008c3.171,0,6.062,0.518,8.672,1.552
			c2.609,1.034,4.842,2.475,6.698,4.321c1.856,1.847,3.296,4.056,4.321,6.626C199.106,16.038,199.619,18.86,199.619,21.935z
			 M191.645,21.935c0-2.301-0.311-4.365-0.929-6.192c-0.618-1.827-1.499-3.374-2.639-4.64c-1.142-1.266-2.528-2.238-4.161-2.915
			c-1.635-0.677-3.477-1.015-5.525-1.015h-8.148v29.522h8.148c2.049,0,3.891-0.338,5.525-1.015c1.633-0.676,3.02-1.648,4.161-2.915
			c1.14-1.266,2.021-2.813,2.639-4.64C191.334,26.299,191.645,24.235,191.645,21.935z"/>
		<path fill="#323232" d="M241.117,42.901h-7.858V24.573h-19.662v18.328h-7.858V0.967h7.858v18.038h19.662V0.967h7.858V42.901z"/>
	</g>
	<g>
		<path fill="#323232" d="M81.171,57.39h3.84c0.32,0,0.575,0.078,0.765,0.233c0.19,0.155,0.305,0.347,0.345,0.577l1.02,6.975
			c0.09,0.59,0.165,1.167,0.225,1.732s0.11,1.133,0.15,1.703c0.18-0.56,0.377-1.12,0.592-1.68c0.215-0.56,0.443-1.145,0.683-1.755
			l2.73-6.975c0.09-0.24,0.25-0.435,0.48-0.585s0.48-0.225,0.75-0.225h3.69l-7.56,15.555h-3.93L81.171,57.39z"/>
		<path fill="#323232" d="M101.751,73.186c-0.87,0-1.683-0.146-2.438-0.435c-0.755-0.29-1.41-0.713-1.965-1.268
			c-0.555-0.555-0.99-1.24-1.305-2.055c-0.315-0.815-0.473-1.752-0.473-2.812c0-1.38,0.228-2.647,0.683-3.802
			c0.455-1.155,1.067-2.153,1.837-2.993s1.663-1.495,2.678-1.965c1.015-0.47,2.083-0.705,3.203-0.705c0.87,0,1.68,0.145,2.43,0.435
			s1.402,0.712,1.958,1.268c0.555,0.555,0.992,1.24,1.312,2.055c0.32,0.815,0.48,1.753,0.48,2.812c0,1.36-0.228,2.618-0.683,3.772
			c-0.455,1.155-1.067,2.155-1.837,3c-0.77,0.845-1.663,1.505-2.677,1.98C103.939,72.948,102.871,73.186,101.751,73.186z
			 M102.171,69.735c0.52,0,0.985-0.158,1.395-0.473s0.757-0.745,1.042-1.29c0.285-0.545,0.505-1.18,0.66-1.905
			c0.155-0.725,0.232-1.498,0.232-2.317c0-1.13-0.153-1.938-0.458-2.423c-0.305-0.485-0.803-0.728-1.493-0.728
			c-0.52,0-0.985,0.158-1.395,0.473s-0.757,0.743-1.042,1.283c-0.285,0.54-0.505,1.175-0.66,1.905
			c-0.155,0.73-0.232,1.505-0.232,2.325c0,1.11,0.152,1.913,0.457,2.407C100.984,69.488,101.481,69.735,102.171,69.735z"/>
		<path fill="#323232" d="M122.001,71.61c-0.46,0.38-0.935,0.685-1.425,0.915c-0.49,0.23-1.013,0.397-1.567,0.502
			c-0.555,0.105-1.168,0.158-1.837,0.158c-0.91,0-1.73-0.155-2.46-0.465c-0.73-0.31-1.353-0.75-1.868-1.32
			c-0.515-0.57-0.913-1.26-1.192-2.07c-0.28-0.81-0.42-1.72-0.42-2.73c0-1.27,0.207-2.475,0.622-3.615s0.995-2.14,1.74-3
			c0.745-0.86,1.627-1.542,2.647-2.047s2.14-0.758,3.36-0.758c1.04,0,1.933,0.178,2.678,0.533c0.745,0.355,1.412,0.913,2.002,1.672
			l-1.5,1.725c-0.11,0.11-0.235,0.208-0.375,0.292c-0.14,0.085-0.295,0.127-0.465,0.127c-0.2,0-0.368-0.042-0.503-0.127
			c-0.135-0.085-0.282-0.175-0.442-0.27c-0.16-0.095-0.355-0.185-0.585-0.27s-0.53-0.127-0.9-0.127c-0.46,0-0.908,0.133-1.342,0.397
			c-0.435,0.265-0.823,0.647-1.163,1.147c-0.34,0.5-0.613,1.115-0.818,1.845s-0.307,1.56-0.307,2.49c0,0.52,0.06,0.973,0.18,1.357
			c0.12,0.385,0.285,0.705,0.495,0.96c0.21,0.255,0.455,0.448,0.735,0.578c0.28,0.13,0.58,0.195,0.9,0.195
			c0.48,0,0.867-0.067,1.162-0.202c0.295-0.135,0.553-0.283,0.772-0.442c0.22-0.16,0.425-0.308,0.615-0.443
			c0.19-0.135,0.42-0.202,0.69-0.202c0.15,0,0.297,0.035,0.442,0.105s0.268,0.165,0.368,0.285l1.2,1.41
			C122.941,70.766,122.461,71.23,122.001,71.61z"/>
		<path fill="#323232" d="M137.211,72.945h-2.49c-0.29,0-0.532-0.038-0.728-0.112c-0.195-0.075-0.35-0.178-0.465-0.308
			c-0.115-0.13-0.195-0.285-0.24-0.465c-0.045-0.18-0.068-0.375-0.068-0.585v-1.11c-0.64,0.88-1.35,1.57-2.13,2.07
			c-0.78,0.5-1.64,0.75-2.58,0.75c-0.56,0-1.1-0.113-1.62-0.338c-0.52-0.225-0.98-0.564-1.38-1.02c-0.4-0.455-0.72-1.035-0.96-1.74
			c-0.24-0.705-0.36-1.538-0.36-2.498c0-1.41,0.257-2.748,0.772-4.013c0.515-1.265,1.235-2.372,2.16-3.322
			c0.925-0.95,2.022-1.705,3.292-2.265c1.27-0.56,2.665-0.84,4.185-0.84c0.74,0,1.49,0.05,2.25,0.15c0.76,0.1,1.51,0.28,2.25,0.54
			L137.211,72.945z M130.371,69.51c0.34,0,0.669-0.127,0.99-0.382c0.32-0.255,0.623-0.603,0.908-1.042
			c0.285-0.44,0.547-0.955,0.787-1.545c0.24-0.59,0.445-1.22,0.615-1.89l0.54-4.305h-0.27c-0.76,0-1.453,0.17-2.078,0.51
			s-1.163,0.802-1.612,1.387c-0.45,0.585-0.798,1.265-1.042,2.04c-0.245,0.775-0.368,1.603-0.368,2.482c0,0.5,0.04,0.925,0.12,1.275
			s0.188,0.632,0.322,0.847c0.135,0.215,0.295,0.373,0.48,0.473S130.151,69.51,130.371,69.51z"/>
		<path fill="#323232" d="M140.271,72.945L143,50.49h4.56l-1.155,9.345c0.69-0.84,1.442-1.498,2.258-1.973
			c0.815-0.475,1.677-0.712,2.587-0.712c0.64,0,1.225,0.112,1.755,0.337s0.987,0.578,1.373,1.058c0.385,0.48,0.685,1.093,0.9,1.837
			c0.215,0.745,0.323,1.633,0.323,2.663c0,1.36-0.208,2.652-0.623,3.877s-0.973,2.302-1.672,3.232
			c-0.7,0.93-1.508,1.667-2.423,2.212c-0.915,0.545-1.873,0.818-2.873,0.818c-0.77,0-1.447-0.148-2.032-0.443
			s-1.083-0.682-1.493-1.163l-0.045,0.15c-0.14,0.42-0.32,0.728-0.54,0.922c-0.22,0.195-0.58,0.292-1.08,0.292H140.271z
			 M149.391,60.675c-0.33,0-0.673,0.125-1.028,0.375s-0.697,0.592-1.027,1.027s-0.638,0.945-0.922,1.53
			c-0.285,0.585-0.523,1.208-0.712,1.867l-0.45,3.63c0.29,0.24,0.615,0.41,0.975,0.51c0.36,0.1,0.705,0.15,1.035,0.15
			c0.54,0,1.038-0.18,1.493-0.54c0.455-0.36,0.848-0.833,1.178-1.417c0.33-0.585,0.587-1.252,0.772-2.002
			c0.185-0.75,0.277-1.515,0.277-2.295c0-0.99-0.145-1.71-0.435-2.16C150.255,60.9,149.871,60.675,149.391,60.675z"/>
		<path fill="#323232" d="M163.01,57.39l-1.17,9.87c-0.02,0.16-0.035,0.308-0.045,0.442c-0.01,0.135-0.015,0.263-0.015,0.383
			c0,0.53,0.093,0.9,0.278,1.11c0.185,0.21,0.462,0.315,0.833,0.315c0.31,0,0.637-0.092,0.982-0.277
			c0.345-0.185,0.677-0.445,0.998-0.78c0.32-0.335,0.617-0.742,0.893-1.222c0.275-0.48,0.502-1.015,0.682-1.605l1.005-8.235h4.649
			l-1.89,15.555h-2.37c-1.1,0-1.65-0.51-1.65-1.53v-0.99c-0.75,0.94-1.555,1.635-2.415,2.085c-0.86,0.45-1.755,0.675-2.685,0.675
			c-0.58,0-1.112-0.105-1.597-0.315c-0.485-0.21-0.905-0.517-1.26-0.922c-0.355-0.405-0.63-0.905-0.825-1.5
			c-0.195-0.595-0.292-1.277-0.292-2.047c0-0.18,0.007-0.365,0.022-0.555c0.015-0.19,0.032-0.385,0.052-0.585l1.17-9.87H163.01z"/>
		<path fill="#323232" d="M173.24,72.945l2.729-22.455h4.59l-2.729,22.455H173.24z"/>
		<path fill="#323232" d="M193.85,72.945h-2.49c-0.29,0-0.532-0.038-0.728-0.112c-0.194-0.075-0.351-0.178-0.465-0.308
			c-0.115-0.13-0.194-0.285-0.239-0.465c-0.046-0.18-0.068-0.375-0.068-0.585v-1.11c-0.641,0.88-1.35,1.57-2.13,2.07
			s-1.64,0.75-2.58,0.75c-0.56,0-1.101-0.113-1.62-0.338c-0.52-0.225-0.98-0.564-1.38-1.02c-0.399-0.455-0.72-1.035-0.96-1.74
			s-0.359-1.538-0.359-2.498c0-1.41,0.257-2.748,0.771-4.013c0.516-1.265,1.235-2.372,2.16-3.322
			c0.926-0.95,2.023-1.705,3.293-2.265s2.664-0.84,4.186-0.84c0.739,0,1.489,0.05,2.25,0.15c0.76,0.1,1.51,0.28,2.25,0.54
			L193.85,72.945z M187.01,69.51c0.34,0,0.67-0.127,0.99-0.382c0.319-0.255,0.622-0.603,0.907-1.042
			c0.284-0.44,0.548-0.955,0.787-1.545c0.24-0.59,0.444-1.22,0.615-1.89l0.54-4.305h-0.27c-0.761,0-1.453,0.17-2.078,0.51
			s-1.162,0.802-1.612,1.387s-0.798,1.265-1.042,2.04c-0.246,0.775-0.368,1.603-0.368,2.482c0,0.5,0.04,0.925,0.12,1.275
			s0.188,0.632,0.322,0.847c0.135,0.215,0.295,0.373,0.48,0.473C186.587,69.46,186.789,69.51,187.01,69.51z"/>
		<path fill="#323232" d="M196.789,72.945l1.891-15.555h2.399c0.479,0,0.854,0.113,1.125,0.338c0.271,0.225,0.405,0.592,0.405,1.102
			v1.77c0.6-1.06,1.25-1.875,1.949-2.445c0.7-0.57,1.426-0.855,2.176-0.855c0.42,0,0.834,0.095,1.244,0.285l-0.84,4.305
			c-0.51-0.22-0.994-0.33-1.455-0.33c-0.77,0-1.452,0.347-2.047,1.042c-0.596,0.695-1.078,1.812-1.447,3.352l-0.84,6.99H196.789z"/>
		<path fill="#323232" d="M214.789,57.39l-1.859,15.555h-4.59l1.859-15.555H214.789z M215.659,53.13c0,0.37-0.08,0.718-0.24,1.042
			c-0.159,0.325-0.37,0.61-0.63,0.855s-0.558,0.44-0.893,0.585s-0.678,0.217-1.027,0.217s-0.686-0.072-1.005-0.217
			c-0.32-0.145-0.603-0.34-0.848-0.585s-0.442-0.53-0.593-0.855c-0.15-0.325-0.225-0.672-0.225-1.042s0.074-0.72,0.225-1.05
			c0.15-0.33,0.354-0.62,0.607-0.87c0.256-0.25,0.543-0.448,0.863-0.593c0.319-0.145,0.654-0.217,1.004-0.217
			c0.361,0,0.705,0.07,1.035,0.21s0.623,0.335,0.878,0.585s0.46,0.54,0.615,0.87S215.659,52.75,215.659,53.13z"/>
		<path fill="#323232" d="M229.879,61.215c0,0.71-0.141,1.36-0.42,1.95c-0.28,0.59-0.768,1.112-1.463,1.567s-1.63,0.842-2.805,1.163
			c-1.176,0.32-2.652,0.57-4.433,0.75c0.021,1.06,0.253,1.835,0.697,2.325c0.444,0.49,1.103,0.735,1.973,0.735
			c0.41,0,0.765-0.035,1.065-0.105c0.3-0.07,0.562-0.16,0.787-0.27c0.225-0.11,0.428-0.225,0.607-0.345s0.353-0.235,0.518-0.345
			c0.165-0.11,0.338-0.2,0.518-0.27c0.18-0.07,0.385-0.105,0.615-0.105c0.15,0,0.295,0.038,0.435,0.113
			c0.14,0.075,0.265,0.172,0.375,0.292l1.2,1.395c-0.551,0.54-1.088,1.007-1.613,1.402c-0.524,0.395-1.064,0.72-1.619,0.975
			s-1.146,0.442-1.77,0.562c-0.625,0.12-1.309,0.18-2.049,0.18c-0.92,0-1.764-0.158-2.534-0.473s-1.433-0.76-1.987-1.335
			s-0.985-1.268-1.291-2.078c-0.305-0.81-0.457-1.71-0.457-2.7c0-0.83,0.093-1.64,0.277-2.43c0.186-0.79,0.45-1.532,0.795-2.228
			c0.346-0.695,0.768-1.335,1.268-1.92s1.062-1.087,1.688-1.508c0.625-0.42,1.311-0.747,2.055-0.982
			c0.746-0.235,1.538-0.353,2.379-0.353c0.829,0,1.566,0.12,2.212,0.36c0.646,0.24,1.187,0.552,1.628,0.938
			c0.439,0.385,0.774,0.817,1.004,1.297C229.764,60.255,229.879,60.735,229.879,61.215z M224.419,60.315
			c-0.771,0-1.445,0.308-2.025,0.922c-0.58,0.615-1.015,1.458-1.305,2.527c0.97-0.15,1.755-0.307,2.354-0.472
			c0.601-0.165,1.065-0.345,1.396-0.54c0.33-0.195,0.552-0.405,0.667-0.63c0.115-0.225,0.173-0.468,0.173-0.728
			c0-0.26-0.101-0.505-0.3-0.735C225.179,60.43,224.859,60.315,224.419,60.315z"/>
		<path fill="#323232" d="M241.279,60.66c-0.141,0.18-0.271,0.31-0.391,0.39s-0.279,0.12-0.48,0.12
			c-0.199,0-0.396-0.045-0.592-0.135c-0.195-0.09-0.405-0.192-0.63-0.307c-0.226-0.115-0.48-0.218-0.765-0.308
			c-0.285-0.09-0.613-0.135-0.982-0.135c-0.69,0-1.184,0.133-1.479,0.397c-0.295,0.265-0.442,0.608-0.442,1.028
			c0,0.27,0.083,0.5,0.247,0.69c0.166,0.19,0.383,0.36,0.653,0.51c0.271,0.15,0.577,0.288,0.923,0.413
			c0.345,0.125,0.697,0.265,1.057,0.42c0.36,0.155,0.713,0.333,1.058,0.533s0.653,0.445,0.923,0.735s0.487,0.635,0.652,1.035
			s0.248,0.875,0.248,1.425c0,0.78-0.156,1.518-0.465,2.212c-0.311,0.695-0.756,1.3-1.336,1.815s-1.282,0.925-2.107,1.23
			c-0.824,0.305-1.752,0.458-2.782,0.458c-0.49,0-0.976-0.05-1.455-0.15c-0.479-0.1-0.933-0.235-1.357-0.405
			s-0.812-0.373-1.163-0.607c-0.35-0.235-0.635-0.488-0.854-0.758l1.14-1.71c0.141-0.2,0.303-0.357,0.488-0.472
			c0.185-0.115,0.412-0.173,0.682-0.173c0.25,0,0.465,0.06,0.646,0.18c0.18,0.12,0.375,0.25,0.585,0.39s0.46,0.27,0.75,0.39
			c0.29,0.12,0.67,0.18,1.141,0.18c0.659,0,1.149-0.147,1.469-0.442c0.32-0.295,0.48-0.643,0.48-1.042
			c0-0.31-0.082-0.565-0.248-0.765c-0.164-0.2-0.382-0.373-0.652-0.518c-0.27-0.145-0.574-0.275-0.914-0.39
			c-0.34-0.115-0.69-0.242-1.051-0.382c-0.359-0.14-0.71-0.302-1.05-0.487s-0.646-0.417-0.915-0.698
			c-0.27-0.28-0.487-0.625-0.652-1.035s-0.248-0.905-0.248-1.485c0-0.72,0.133-1.42,0.398-2.1c0.265-0.68,0.66-1.282,1.185-1.807
			s1.178-0.947,1.958-1.268c0.779-0.32,1.689-0.48,2.729-0.48s1.968,0.18,2.782,0.54c0.815,0.36,1.488,0.8,2.018,1.32L241.279,60.66
			z"/>
	</g>
	<polygon fill="#3B89AD" points="51.595,40.826 49.3,36.841 49.278,36.804 49.282,36.798 47.342,33.441 45.067,29.49 45.055,29.469 
		44.075,27.766 42.759,25.481 35.168,12.299 27.781,25.06 31.976,32.4 35.151,26.916 38.526,32.776 38.741,33.149 38.757,33.142 
		40.836,36.74 40.822,36.765 40.839,36.793 40.853,36.77 45.071,44.07 45.05,44.106 45.067,44.136 47.363,48.122 49.434,51.718 
		57.547,65.809 12.667,65.757 23.138,47.669 18.943,40.327 0,73.051 70.197,73.131 	"/>
	<polygon fill="#8BD2D8" points="0.339,0 18.038,30.737 18.05,30.73 20.074,34.272 21.258,36.328 25.469,43.642 35.368,60.832 
		42.768,48.052 38.549,40.751 35.385,46.216 34.144,44.062 34.071,44.103 29.666,36.393 25.47,29.051 23.441,25.5 23.452,25.493 
		12.989,7.323 57.869,7.374 47.366,25.515 47.518,25.776 51.586,32.817 70.536,0.08 	"/>
</g>
</svg>
