<?xml version="1.0" encoding="utf-8"?>
<!-- Generator: Adobe Illustrator 16.0.4, SVG Export Plug-In . SVG Version: 6.00 Build 0)  -->
<!DOCTYPE svg PUBLIC "-//W3C//DTD SVG 1.1//EN" "http://www.w3.org/Graphics/SVG/1.1/DTD/svg11.dtd">
<svg version="1.1" id="Layer_1" xmlns="http://www.w3.org/2000/svg" xmlns:xlink="http://www.w3.org/1999/xlink" x="0px" y="0px"
	 width="259.186px" height="73.131px" viewBox="0 0 259.186 73.131" enable-background="new 0 0 259.186 73.131"
	 xml:space="preserve">
<g>
	<g>
		<path fill="#323232" d="M79.227,18.298h7.48c0.807,0,1.466,0.184,1.98,0.55c0.513,0.367,0.88,0.853,1.1,1.458l7.755,21.45
			c0.348,0.935,0.701,1.952,1.059,3.052c0.358,1.101,0.692,2.256,1.004,3.466c0.256-1.21,0.554-2.365,0.894-3.466
			c0.339-1.1,0.673-2.117,1.003-3.052l7.7-21.45c0.183-0.513,0.541-0.976,1.072-1.389s1.183-0.619,1.953-0.619h7.535l-16.06,40.068
			h-8.415L79.227,18.298z"/>
		<path fill="#323232" d="M132.192,29.408c2.163,0,4.134,0.339,5.913,1.018c1.778,0.678,3.304,1.65,4.579,2.915
			s2.264,2.801,2.97,4.606c0.706,1.806,1.059,3.836,1.059,6.091c0,2.273-0.353,4.322-1.059,6.146
			c-0.706,1.824-1.696,3.373-2.97,4.647s-2.801,2.255-4.579,2.942c-1.778,0.688-3.75,1.031-5.913,1.031
			c-2.182,0-4.166-0.344-5.954-1.031s-3.328-1.668-4.62-2.942s-2.292-2.823-2.998-4.647c-0.706-1.824-1.059-3.873-1.059-6.146
			c0-2.255,0.353-4.285,1.059-6.091c0.706-1.805,1.705-3.341,2.998-4.606s2.833-2.237,4.62-2.915S130.011,29.408,132.192,29.408z
			 M132.192,52.481c1.961,0,3.405-0.692,4.332-2.077c0.925-1.384,1.389-3.487,1.389-6.312c0-2.822-0.463-4.922-1.389-6.297
			c-0.926-1.375-2.37-2.062-4.332-2.062c-2.017,0-3.492,0.688-4.427,2.062s-1.403,3.475-1.403,6.297
			c0,2.824,0.468,4.928,1.403,6.312C128.7,51.789,130.176,52.481,132.192,52.481z"/>
		<path fill="#323232" d="M171.957,36.613c-0.257,0.312-0.504,0.56-0.742,0.743s-0.578,0.275-1.018,0.275
			c-0.422,0-0.803-0.101-1.142-0.303c-0.339-0.202-0.72-0.426-1.141-0.674c-0.422-0.248-0.917-0.472-1.485-0.673
			s-1.274-0.303-2.117-0.303c-1.045,0-1.948,0.192-2.709,0.578c-0.761,0.385-1.389,0.935-1.884,1.65
			c-0.495,0.715-0.862,1.591-1.1,2.626c-0.239,1.035-0.358,2.205-0.358,3.506c0,2.732,0.527,4.831,1.582,6.298
			c1.054,1.467,2.507,2.2,4.359,2.2c0.99,0,1.773-0.124,2.351-0.371c0.578-0.248,1.068-0.523,1.471-0.826
			c0.403-0.302,0.774-0.581,1.114-0.838c0.338-0.257,0.765-0.385,1.278-0.385c0.678,0,1.191,0.247,1.54,0.742l2.475,3.053
			c-0.88,1.008-1.806,1.828-2.777,2.461s-1.967,1.127-2.983,1.484c-1.018,0.357-2.04,0.605-3.066,0.743
			c-1.027,0.138-2.026,0.206-2.998,0.206c-1.742,0-3.406-0.33-4.991-0.99c-1.586-0.66-2.979-1.617-4.18-2.873
			s-2.154-2.801-2.86-4.635c-0.706-1.832-1.059-3.922-1.059-6.27c0-2.053,0.307-3.974,0.921-5.761s1.521-3.336,2.723-4.647
			c1.201-1.311,2.686-2.342,4.455-3.094c1.769-0.751,3.818-1.127,6.146-1.127c2.237,0,4.198,0.357,5.885,1.073
			c1.688,0.715,3.209,1.76,4.565,3.135L171.957,36.613z"/>
		<path fill="#323232" d="M197.807,58.366c-0.807,0-1.416-0.11-1.829-0.33c-0.413-0.221-0.757-0.678-1.031-1.375l-0.604-1.568
			c-0.715,0.605-1.402,1.137-2.062,1.596c-0.66,0.458-1.344,0.848-2.049,1.168c-0.706,0.321-1.458,0.56-2.256,0.715
			c-0.797,0.156-1.682,0.234-2.653,0.234c-1.302,0-2.484-0.17-3.548-0.51c-1.062-0.341-1.966-0.842-2.709-1.504
			c-0.742-0.662-1.314-1.486-1.719-2.47c-0.402-0.983-0.604-2.12-0.604-3.407c0-1.012,0.257-2.051,0.771-3.117
			c0.513-1.066,1.402-2.037,2.667-2.911s2.97-1.604,5.115-2.192c2.146-0.59,4.849-0.884,8.112-0.884v-1.222
			c0-1.683-0.344-2.9-1.031-3.649c-0.688-0.75-1.664-1.124-2.929-1.124c-1.009,0-1.833,0.11-2.476,0.33
			c-0.641,0.22-1.214,0.468-1.719,0.743c-0.504,0.275-0.994,0.522-1.471,0.743c-0.477,0.22-1.045,0.33-1.705,0.33
			c-0.587,0-1.086-0.142-1.498-0.426c-0.413-0.284-0.738-0.637-0.977-1.059l-1.54-2.667c1.724-1.521,3.634-2.654,5.733-3.396
			c2.1-0.743,4.35-1.114,6.752-1.114c1.723,0,3.276,0.28,4.66,0.839c1.385,0.559,2.559,1.338,3.521,2.337
			c0.962,1,1.7,2.186,2.214,3.561s0.77,2.878,0.77,4.51v17.82H197.807z M188.017,53.169c1.1,0,2.062-0.193,2.888-0.578
			c0.824-0.385,1.658-1.008,2.502-1.87v-3.905c-1.705,0-3.107,0.111-4.207,0.334c-1.1,0.221-1.971,0.498-2.613,0.832
			c-0.642,0.332-1.086,0.711-1.334,1.137c-0.246,0.426-0.371,0.888-0.371,1.387c0,0.98,0.266,1.67,0.798,2.066
			C186.211,52.97,186.989,53.169,188.017,53.169z"/>
		<path fill="#323232" d="M207.76,58.366V17.198h8.525v15.675c1.063-1.045,2.27-1.884,3.617-2.516
			c1.347-0.632,2.928-0.949,4.743-0.949c1.485,0,2.86,0.321,4.125,0.962c1.265,0.642,2.355,1.582,3.272,2.819
			c0.916,1.237,1.637,2.755,2.158,4.551c0.523,1.797,0.784,3.84,0.784,6.132c0,2.146-0.298,4.125-0.894,5.94
			c-0.596,1.814-1.43,3.392-2.502,4.73c-1.073,1.338-2.356,2.383-3.851,3.135c-1.495,0.751-3.149,1.127-4.964,1.127
			c-0.844,0-1.6-0.082-2.269-0.248c-0.669-0.164-1.284-0.398-1.843-0.701c-0.559-0.302-1.072-0.664-1.54-1.086
			s-0.921-0.88-1.36-1.375l-0.303,1.43c-0.129,0.588-0.363,0.99-0.701,1.211c-0.34,0.22-0.784,0.33-1.334,0.33H207.76z
			 M221.676,35.816c-0.624,0-1.188,0.06-1.691,0.179s-0.973,0.289-1.402,0.509c-0.432,0.22-0.83,0.5-1.197,0.838
			c-0.366,0.34-0.732,0.729-1.1,1.169v12.1c0.642,0.715,1.338,1.215,2.09,1.499s1.541,0.427,2.365,0.427
			c0.788,0,1.513-0.156,2.173-0.468c0.659-0.312,1.232-0.812,1.719-1.499c0.485-0.688,0.866-1.581,1.142-2.682
			c0.274-1.1,0.412-2.438,0.412-4.015c0-1.503-0.109-2.769-0.33-3.795s-0.527-1.856-0.922-2.489
			c-0.395-0.632-0.865-1.086-1.416-1.361C222.968,35.953,222.354,35.816,221.676,35.816z"/>
		<path fill="#323232" d="M257.095,36.091c-0.22,0.348-0.454,0.596-0.701,0.742c-0.247,0.147-0.563,0.22-0.948,0.22
			c-0.404,0-0.808-0.087-1.211-0.261c-0.402-0.174-0.838-0.362-1.306-0.564c-0.468-0.201-0.995-0.389-1.581-0.563
			c-0.588-0.174-1.256-0.261-2.008-0.261c-1.082,0-1.911,0.206-2.488,0.619c-0.578,0.413-0.867,0.986-0.867,1.719
			c0,0.532,0.188,0.972,0.564,1.32c0.375,0.349,0.875,0.655,1.498,0.921c0.623,0.267,1.33,0.519,2.118,0.757s1.595,0.505,2.42,0.798
			s1.632,0.637,2.42,1.031s1.494,0.879,2.118,1.457c0.623,0.578,1.122,1.279,1.498,2.104c0.375,0.825,0.564,1.815,0.564,2.971
			c0,1.412-0.258,2.713-0.771,3.904c-0.514,1.192-1.278,2.219-2.296,3.08c-1.018,0.862-2.273,1.531-3.768,2.008
			c-1.495,0.477-3.214,0.715-5.156,0.715c-0.973,0-1.943-0.092-2.916-0.275c-0.971-0.183-1.91-0.43-2.818-0.742
			c-0.907-0.312-1.746-0.683-2.516-1.113c-0.771-0.431-1.431-0.895-1.98-1.389l1.98-3.135c0.238-0.367,0.521-0.656,0.852-0.867
			s0.762-0.316,1.293-0.316c0.495,0,0.939,0.11,1.334,0.33c0.395,0.221,0.82,0.459,1.278,0.715c0.458,0.258,0.995,0.496,1.608,0.715
			c0.615,0.221,1.389,0.33,2.324,0.33c0.66,0,1.219-0.068,1.678-0.205c0.458-0.139,0.824-0.326,1.1-0.564s0.477-0.504,0.605-0.797
			c0.128-0.293,0.192-0.596,0.192-0.908c0-0.568-0.192-1.035-0.577-1.402s-0.891-0.683-1.514-0.949
			c-0.623-0.266-1.333-0.513-2.131-0.742c-0.797-0.229-1.608-0.49-2.434-0.783c-0.824-0.293-1.637-0.646-2.434-1.059
			c-0.797-0.413-1.508-0.936-2.131-1.568c-0.624-0.633-1.128-1.406-1.513-2.323c-0.386-0.917-0.577-2.026-0.577-3.328
			c0-1.21,0.233-2.36,0.701-3.451c0.467-1.091,1.168-2.049,2.104-2.874c0.935-0.825,2.107-1.48,3.52-1.966s3.062-0.729,4.95-0.729
			c1.026,0,2.021,0.092,2.983,0.275c0.963,0.184,1.865,0.44,2.709,0.77s1.613,0.72,2.311,1.169c0.696,0.449,1.311,0.939,1.842,1.471
			L257.095,36.091z"/>
	</g>
	<g>
		<g>
			<polygon fill="#3B89AD" points="51.595,40.826 49.3,36.841 49.278,36.804 49.282,36.798 47.342,33.441 45.067,29.49 
				45.055,29.469 44.075,27.766 42.759,25.481 35.168,12.299 27.781,25.06 31.976,32.4 35.151,26.916 38.526,32.776 38.741,33.149 
				38.757,33.142 40.836,36.74 40.822,36.765 40.839,36.793 40.853,36.77 45.071,44.07 45.05,44.106 45.067,44.136 47.363,48.122 
				49.434,51.718 57.547,65.809 12.667,65.757 23.138,47.669 18.943,40.327 0,73.051 70.197,73.131 			"/>
		</g>
		<g>
			<polygon fill="#8BD2D8" points="0.339,0 18.038,30.737 18.05,30.73 20.074,34.272 21.258,36.328 25.469,43.642 35.368,60.832 
				42.768,48.052 38.549,40.751 35.385,46.216 34.144,44.062 34.071,44.103 29.666,36.393 25.47,29.051 23.441,25.5 23.452,25.493 
				12.989,7.323 57.869,7.374 47.366,25.515 47.518,25.776 51.586,32.817 70.536,0.08 			"/>
		</g>
	</g>
</g>
</svg>
